<svg width="120" height="120" viewBox="0 0 120 120" fill="none" xmlns="http://www.w3.org/2000/svg">
<rect width="120" height="120" fill="#344EAD"/>
<g clip-path="url(#clip0_103_22)">
<path d="M48.3657 72.66L41.6914 60.47H39.8171V72.66H32V40.368H45.12C47.6495 40.368 49.7981 40.8127 51.5657 41.702C53.3638 42.5913 54.7048 43.818 55.5886 45.382C56.4724 46.9153 56.9143 48.6327 56.9143 50.534C56.9143 52.6807 56.3048 54.5973 55.0857 56.284C53.8971 57.9707 52.1295 59.1667 49.7829 59.872L57.1886 72.66H48.3657ZM39.8171 54.904H44.6629C46.0952 54.904 47.1619 54.5513 47.8629 53.846C48.5943 53.1407 48.96 52.144 48.96 50.856C48.96 49.6293 48.5943 48.6633 47.8629 47.958C47.1619 47.2527 46.0952 46.9 44.6629 46.9H39.8171V54.904ZM66.4386 46.67V53.202H76.9071V59.274H66.4386V66.358H78.2786V72.66H58.6214V40.368H78.2786V46.67H66.4386ZM78.8279 56.468C78.8279 53.2787 79.5136 50.442 80.885 47.958C82.2565 45.4433 84.1612 43.496 86.5993 42.116C89.0679 40.7053 91.8565 40 94.965 40C98.7746 40 102.036 41.012 104.748 43.036C107.46 45.06 109.273 47.82 110.188 51.316H101.594C100.954 49.9667 100.039 48.9393 98.8508 48.234C97.6927 47.5287 96.3669 47.176 94.8736 47.176C92.466 47.176 90.5155 48.0193 89.0222 49.706C87.5289 51.3927 86.7822 53.6467 86.7822 56.468C86.7822 59.2893 87.5289 61.5433 89.0222 63.23C90.5155 64.9167 92.466 65.76 94.8736 65.76C96.3669 65.76 97.6927 65.4073 98.8508 64.702C100.039 63.9967 100.954 62.9693 101.594 61.62H110.188C109.273 65.116 107.46 67.876 104.748 69.9C102.036 71.8933 98.7746 72.89 94.965 72.89C91.8565 72.89 89.0679 72.2 86.5993 70.82C84.1612 69.4093 82.2565 67.462 80.885 64.978C79.5136 62.494 78.8279 59.6573 78.8279 56.468Z" fill="white"/>
<path d="M36.8091 78.9648L35.8009 79.1445C35.7587 79.0147 35.6918 78.8912 35.6 78.7739C35.5107 78.6566 35.3892 78.5606 35.2354 78.4856C35.0817 78.4108 34.8894 78.3734 34.6588 78.3734C34.3438 78.3734 34.0809 78.4445 33.8701 78.5867C33.6593 78.7265 33.5539 78.9074 33.5539 79.1295C33.5539 79.3217 33.6246 79.4764 33.766 79.5937C33.9073 79.711 34.1355 79.8071 34.4505 79.882L35.3582 80.0916C35.884 80.2139 36.2759 80.4023 36.5338 80.6569C36.7917 80.9115 36.9207 81.2421 36.9207 81.6489C36.9207 81.9933 36.8215 82.3003 36.6231 82.5698C36.4271 82.8368 36.1531 83.0465 35.8009 83.1987C35.4512 83.351 35.0457 83.4271 34.5844 83.4271C33.9446 83.4271 33.4225 83.2898 33.0182 83.0153C32.6139 82.7382 32.3659 82.3452 32.2742 81.8361L33.3493 81.6714C33.4163 81.9534 33.5539 82.1668 33.7623 82.3115C33.9706 82.4538 34.2422 82.5249 34.5769 82.5249C34.9415 82.5249 35.2329 82.4488 35.4512 82.2965C35.6695 82.1418 35.7786 81.9534 35.7786 81.7313C35.7786 81.5516 35.7116 81.4006 35.5777 81.2783C35.4463 81.156 35.2441 81.0636 34.9713 81.0013L34.0041 80.7879C33.4708 80.6656 33.0765 80.471 32.821 80.2039C32.568 79.9369 32.4415 79.5987 32.4415 79.1894C32.4415 78.8501 32.5358 78.5531 32.7243 78.2985C32.9127 78.0439 33.1732 77.8456 33.5055 77.7032C33.8379 77.5585 34.2186 77.4862 34.6476 77.4862C35.2652 77.4862 35.7513 77.6209 36.106 77.8904C36.4606 78.1575 36.695 78.5156 36.8091 78.9648ZM49.9254 77.561V78.4595H46.8042V77.561H49.9254ZM47.6412 76.1834H48.7536V81.6227C48.7536 81.8398 48.7858 82.0033 48.8503 82.1131C48.9147 82.2204 48.9979 82.294 49.0995 82.334C49.2037 82.3714 49.3165 82.3902 49.4381 82.3902C49.5274 82.3902 49.6055 82.3839 49.6725 82.3714C49.7394 82.3589 49.7915 82.349 49.8287 82.3415L50.0296 83.2661C49.9651 83.2911 49.8733 83.316 49.7543 83.341C49.6352 83.3684 49.4865 83.3834 49.3079 83.3859C49.0152 83.3909 48.7424 83.3384 48.4894 83.2287C48.2365 83.1189 48.0318 82.9492 47.8756 82.7195C47.7193 82.4899 47.6412 82.2017 47.6412 81.8548V76.1834ZM63.89 80.9264V77.561H65.0061V83.311H63.9123V82.3152H63.8527C63.7213 82.6223 63.5105 82.878 63.2204 83.0827C62.9326 83.2849 62.5743 83.3859 62.1452 83.3859C61.7781 83.3859 61.4532 83.3048 61.1705 83.1425C60.8903 82.9778 60.6695 82.7345 60.5083 82.4126C60.3495 82.0907 60.2702 81.6926 60.2702 81.2184V77.561H61.3825V81.0837C61.3825 81.4754 61.4905 81.7875 61.7062 82.0195C61.922 82.2516 62.2023 82.3676 62.5469 82.3676C62.7553 82.3676 62.9624 82.3152 63.1683 82.2105C63.3765 82.1056 63.5489 81.9471 63.6854 81.735C63.8243 81.5229 63.8925 81.2534 63.89 80.9264ZM77.7541 83.4233C77.2927 83.4233 76.881 83.3048 76.5189 83.0677C76.1593 82.8281 75.8766 82.4874 75.6707 82.0457C75.4674 81.6015 75.3657 81.0687 75.3657 80.4472C75.3657 79.8259 75.4686 79.2943 75.6745 78.8526C75.8828 78.4108 76.168 78.0727 76.5301 77.8381C76.8923 77.6035 77.3026 77.4862 77.7615 77.4862C78.1162 77.4862 78.4014 77.5461 78.6171 77.6659C78.8354 77.7832 79.0041 77.9204 79.1231 78.0777C79.2446 78.2348 79.3389 78.3734 79.4059 78.4932H79.4728V75.6444H80.5852V83.311H79.4988V82.4163H79.4059C79.3389 82.5386 79.2422 82.6783 79.1157 82.8356C78.9917 82.9929 78.8205 83.1301 78.6023 83.2474C78.3841 83.3647 78.1013 83.4233 77.7541 83.4233ZM77.9996 82.4687C78.3195 82.4687 78.5899 82.3839 78.8106 82.2142C79.0338 82.042 79.2024 81.8037 79.3165 81.4992C79.4331 81.1947 79.4914 80.8403 79.4914 80.436C79.4914 80.0367 79.4344 79.6873 79.3203 79.3878C79.2062 79.0883 79.0388 78.8551 78.8181 78.6878C78.5973 78.5206 78.3245 78.437 77.9996 78.437C77.6647 78.437 77.3858 78.5243 77.1625 78.699C76.9393 78.8737 76.7706 79.1121 76.6566 79.4141C76.545 79.716 76.4892 80.0567 76.4892 80.436C76.4892 80.8203 76.5463 81.166 76.6604 81.4729C76.7745 81.7799 76.943 82.0232 77.1663 82.2029C77.392 82.3801 77.6698 82.4687 77.9996 82.4687ZM91.287 83.311V77.561H92.3994V83.311H91.287ZM91.8488 76.6738C91.6554 76.6738 91.4892 76.6089 91.3504 76.4792C91.2139 76.3469 91.1457 76.1896 91.1457 76.0075C91.1457 75.8228 91.2139 75.6655 91.3504 75.5358C91.4892 75.4035 91.6554 75.3374 91.8488 75.3374C92.0423 75.3374 92.2072 75.4035 92.3436 75.5358C92.4825 75.6655 92.552 75.8228 92.552 76.0075C92.552 76.1896 92.4825 76.3469 92.3436 76.4792C92.2072 76.6089 92.0423 76.6738 91.8488 76.6738ZM105.417 83.4271C104.882 83.4271 104.414 83.3036 104.015 83.0565C103.615 82.8094 103.305 82.4638 103.085 82.0195C102.864 81.5753 102.753 81.0562 102.753 80.4622C102.753 79.8657 102.864 79.3442 103.085 78.8974C103.305 78.4507 103.615 78.1038 104.015 77.8568C104.414 77.6097 104.882 77.4862 105.417 77.4862C105.953 77.4862 106.42 77.6097 106.82 77.8568C107.219 78.1038 107.529 78.4507 107.75 78.8974C107.97 79.3442 108.081 79.8657 108.081 80.4622C108.081 81.0562 107.97 81.5753 107.75 82.0195C107.529 82.4638 107.219 82.8094 106.82 83.0565C106.42 83.3036 105.953 83.4271 105.417 83.4271ZM105.421 82.4874C105.768 82.4874 106.056 82.3951 106.284 82.2105C106.512 82.0258 106.681 81.7799 106.79 81.4729C106.902 81.166 106.957 80.8279 106.957 80.4584C106.957 80.0916 106.902 79.7547 106.79 79.4477C106.681 79.1382 106.512 78.8899 106.284 78.7028C106.056 78.5156 105.768 78.422 105.421 78.422C105.071 78.422 104.781 78.5156 104.55 78.7028C104.322 78.8899 104.152 79.1382 104.041 79.4477C103.932 79.7547 103.877 80.0916 103.877 80.4584C103.877 80.8279 103.932 81.166 104.041 81.4729C104.152 81.7799 104.322 82.0258 104.55 82.2105C104.781 82.3951 105.071 82.4874 105.421 82.4874Z" fill="white"/>
<path d="M15.7143 68.5C18.8702 68.5 21.4286 65.9256 21.4286 62.75C21.4286 59.5744 18.8702 57 15.7143 57C12.5584 57 10 59.5744 10 62.75C10 65.9256 12.5584 68.5 15.7143 68.5Z" fill="#EA4040"/>
</g>
<defs>
<clipPath id="clip0_103_22">
<rect width="100" height="69" fill="white" transform="translate(10 28)"/>
</clipPath>
</defs>
</svg>
